<?xml version="1.0" encoding="iso-8859-1"?>
<!-- Generator: Adobe Illustrator 19.0.0, SVG Export Plug-In . SVG Version: 6.00 Build 0)  -->
<svg version="1.1" id="Layer_1" xmlns="http://www.w3.org/2000/svg" xmlns:xlink="http://www.w3.org/1999/xlink" x="0px" y="0px" width="24" height="24"
	 viewBox="0 0 473.931 473.931" style="enable-background:new 0 0 473.931 473.931;" xml:space="preserve">
<circle style="fill:#357180;" cx="236.966" cy="236.966" r="236.966"/>
<rect x="129.471" y="92.203" transform="matrix(-0.1577 -0.9875 0.9875 -0.1577 36.539 512.9334)" style="fill:#EBF6F9;" width="24" height="24"/>
<polygon style="fill:#DBF0F5;" points="392.645,313.496 114.386,359.299 82.843,166.003 361.106,120.2 "/>
<path style="fill:#6CC077;" d="M383.837,279.45l-43.853-31.446c0,0-13.074-12.127-22.997-9.916
	c-8.935,2.002-17.612,15.027-19.248,17.594l-14.701-10.544c0,0-15.326-14.226-26.959-11.618
	c-11.637,2.601-22.967,21.272-22.967,21.272l-3.225,4.483l-27.67-19.858c0,0-18.832-17.474-33.126-14.282
	c-14.297,3.195-28.232,26.147-28.232,26.147l-33.399,46.555l9.59,58.068l271.981-44.778L383.837,279.45z"/>
<g>
	<path style="fill:#67B8CB;" d="M246.855,189.112c-0.015-0.318,0.153-0.621,0.086-0.943c-0.816-4.954-6.829-8.082-13.429-7.001
		c-0.868,0.146-1.594,0.513-2.398,0.775c-2.406-2.301-6.32-3.555-10.642-2.847c-5.594,0.92-9.534,4.692-9.931,8.834
		c-5.253,1.968-8.756,6.181-8.03,10.593c0.688,4.172,4.894,7.012,10.099,7.461c2.327,3.532,7.416,5.553,13.055,4.629
		c5.111-0.842,9.066-3.839,10.57-7.427c1.392,0.225,2.859,0.243,4.393-0.007c5.86-0.958,10.02-5.306,9.306-9.71
		C249.635,191.664,248.423,190.227,246.855,189.112z"/>
	<path style="fill:#67B8CB;" d="M304.583,191.174c-0.079-0.217-0.258-0.389-0.292-0.61c-0.576-3.51,2.761-7.001,7.446-7.772
		c0.621-0.101,1.19-0.019,1.785-0.019c1.096-2.11,3.454-3.843,6.511-4.344c3.985-0.662,7.491,0.984,8.711,3.674
		c3.985,0.138,7.3,2.17,7.813,5.31c0.49,2.967-1.706,5.833-5.093,7.323c-0.756,2.9-3.734,5.429-7.734,6.088
		c-3.633,0.599-6.978-0.528-8.816-2.586c-0.883,0.46-1.871,0.812-2.952,0.988c-4.168,0.688-7.959-1.287-8.471-4.415
		C303.27,193.528,303.76,192.285,304.583,191.174z"/>
</g>
<circle style="fill:#0EA24A;" cx="357.001" cy="300.239" r="62.027"/>
<g>
	<rect x="349.518" y="268.022" style="fill:#FFFFFF;" width="18.971" height="65.952"/>
	<rect x="326.02" y="291.521" style="fill:#FFFFFF;" width="65.956" height="18.971"/>
</g>
<g>
</g>
<g>
</g>
<g>
</g>
<g>
</g>
<g>
</g>
<g>
</g>
<g>
</g>
<g>
</g>
<g>
</g>
<g>
</g>
<g>
</g>
<g>
</g>
<g>
</g>
<g>
</g>
<g>
</g>
</svg>
